<svg width="32" height="32" viewBox="0 0 32 32" fill="none" xmlns="http://www.w3.org/2000/svg">
<path d="M13.3337 3C12.7814 3 12.3337 3.44772 12.3337 4V5H6.66699C6.11471 5 5.66699 5.44772 5.66699 6C5.66699 6.55228 6.11471 7 6.66699 7H25.3337C25.8859 7 26.3337 6.55228 26.3337 6C26.3337 5.44772 25.8859 5 25.3337 5H19.667V4C19.667 3.44772 19.2193 3 18.667 3H13.3337Z" fill="#fff"/>
<path d="M13.3337 14.2C13.8859 14.2 14.3337 14.6477 14.3337 15.2L14.3337 24.5333C14.3337 25.0856 13.8859 25.5333 13.3337 25.5333C12.7814 25.5333 12.3337 25.0856 12.3337 24.5333L12.3337 15.2C12.3337 14.6477 12.7814 14.2 13.3337 14.2Z" fill="#fff"/>
<path d="M19.667 15.2C19.667 14.6477 19.2193 14.2 18.667 14.2C18.1147 14.2 17.667 14.6477 17.667 15.2V24.5333C17.667 25.0856 18.1147 25.5333 18.667 25.5333C19.2193 25.5333 19.667 25.0856 19.667 24.5333V15.2Z" fill="#fff"/>
<path fill-rule="evenodd" clip-rule="evenodd" d="M7.98889 10.5562C8.04516 10.0498 8.47323 9.66667 8.98278 9.66667H23.0179C23.5274 9.66667 23.9555 10.0498 24.0117 10.5562L24.2786 12.958C24.7624 17.3118 24.7624 21.7058 24.2786 26.0595L24.2523 26.296C24.0603 28.0242 22.7209 29.4022 20.9989 29.6433C17.6827 30.1076 14.318 30.1076 11.0018 29.6433C9.27971 29.4022 7.94032 28.0242 7.7483 26.296L7.72203 26.0595C7.23827 21.7057 7.23827 17.3118 7.72203 12.958L7.98889 10.5562ZM9.87782 11.6667L9.70979 13.1789C9.24235 17.3859 9.24235 21.6317 9.70979 25.8386L9.73606 26.0751C9.82713 26.8947 10.4624 27.5483 11.2791 27.6626C14.4113 28.1011 17.5893 28.1011 20.7216 27.6626C21.5383 27.5483 22.1735 26.8947 22.2646 26.0751L22.2908 25.8387C22.7583 21.6317 22.7583 17.3859 22.2908 13.1789L22.1228 11.6667H9.87782Z" fill="#fff"/>
</svg>
