<svg width="32" height="32" viewBox="0 0 32 32" fill="none" xmlns="http://www.w3.org/2000/svg">
<path fill-rule="evenodd" clip-rule="evenodd" d="M20.1822 4.62639C19.9947 4.43885 19.7404 4.3335 19.4751 4.3335C19.2099 4.3335 18.9556 4.43885 18.768 4.62639L6.51151 16.8829C6.38588 17.0085 6.29599 17.1654 6.25108 17.3373L4.91775 22.4419C4.82803 22.7853 4.92715 23.1507 5.17818 23.4017C5.42921 23.6527 5.79452 23.7518 6.13801 23.6621L11.2426 22.3288C11.4145 22.2839 11.5713 22.194 11.697 22.0684L23.9535 9.81184C24.344 9.42131 24.344 8.78815 23.9535 8.39763L20.1822 4.62639ZM8.11759 18.1053L19.4751 6.74771L21.8322 9.10473L10.4746 20.4623L7.28426 21.2956L8.11759 18.1053Z" fill="#fff"/>
<path d="M5.33301 25.6668C4.78072 25.6668 4.33301 26.1145 4.33301 26.6668C4.33301 27.2191 4.78072 27.6668 5.33301 27.6668H25.333C25.8853 27.6668 26.333 27.2191 26.333 26.6668C26.333 26.1145 25.8853 25.6668 25.333 25.6668H5.33301Z" fill="#fff"/>
</svg>
