<svg xmlns="http://www.w3.org/2000/svg" width="24" height="24" viewBox="0 0 24 24" fill="currentColor">
<path fill-rule="evenodd" clip-rule="evenodd" d="M3.53846 12C3.53846 7.32682 7.32682 3.53846 12 3.53846C16.6732 3.53846 20.4615 7.32682 20.4615 12C20.4615 16.6732 16.6732 20.4615 12 20.4615C7.32682 20.4615 3.53846 16.6732 3.53846 12ZM12 2C6.47715 2 2 6.47715 2 12C2 17.5228 6.47715 22 12 22C17.5228 22 22 17.5228 22 12C22 6.47715 17.5228 2 12 2ZM12 9.45117C12.5523 9.45117 13 9.00346 13 8.45117C13 7.89889 12.5523 7.45117 12 7.45117C11.4477 7.45117 11 7.89889 11 8.45117C11 9.00346 11.4477 9.45117 12 9.45117ZM12.0023 10.3809C11.5329 10.3809 11.1523 10.7614 11.1523 11.2309V16.5309C11.1523 17.0003 11.5329 17.3809 12.0023 17.3809C12.4718 17.3809 12.8523 17.0003 12.8523 16.5309V11.2309C12.8523 10.7614 12.4718 10.3809 12.0023 10.3809Z" fill="#808080"></path>
</svg>