<svg width="24" height="20" viewBox="0 0 24 20" fill="none" xmlns="http://www.w3.org/2000/svg">
<path d="M6.66634 7.66672C5.74587 7.66672 4.99967 8.41291 4.99967 9.33338C4.99967 10.2539 5.74587 11.0001 6.66634 11.0001C7.58682 11.0001 8.33301 10.2539 8.33301 9.33338C8.33301 8.41291 7.58682 7.66672 6.66634 7.66672Z" fill="black"/>
<path d="M11.9997 7.66672C11.0792 7.66672 10.333 8.41291 10.333 9.33338C10.333 10.2539 11.0792 11.0001 11.9997 11.0001C12.9201 11.0001 13.6663 10.2539 13.6663 9.33338C13.6663 8.41291 12.9201 7.66672 11.9997 7.66672Z" fill="black"/>
<path d="M15.6663 9.33338C15.6663 8.41291 16.4125 7.66672 17.333 7.66672C18.2535 7.66672 18.9997 8.41291 18.9997 9.33338C18.9997 10.2539 18.2535 11.0001 17.333 11.0001C16.4125 11.0001 15.6663 10.2539 15.6663 9.33338Z" fill="black"/>
<path fill-rule="evenodd" clip-rule="evenodd" d="M17.4673 1.12377C13.8751 0.817426 10.264 0.799648 6.66893 1.07061L6.41129 1.09003C2.98288 1.34842 0.333008 4.20553 0.333008 7.64366V19.0001C0.333008 19.3519 0.517896 19.6778 0.819872 19.8584C1.12185 20.0389 1.49648 20.0475 1.80639 19.8809L7.02078 17.0786C7.26333 16.9483 7.5344 16.8801 7.80975 16.8801H19.7783C21.2877 16.8801 22.5813 15.8009 22.8519 14.3159C23.4003 11.3062 23.4436 8.22626 22.9801 5.20238L22.8435 4.31128C22.5948 2.68895 21.2676 1.44786 19.6323 1.3084L17.4673 1.12377ZM6.81924 3.06495C10.3077 2.80203 13.8117 2.81928 17.2974 3.11654L19.4623 3.30117C20.1775 3.36215 20.7578 3.90487 20.8666 4.61431L21.0032 5.50541C21.433 8.30979 21.3929 11.1662 20.8843 13.9574C20.7869 14.4917 20.3215 14.8801 19.7783 14.8801H7.80975C7.20397 14.8801 6.60762 15.0301 6.07401 15.3169L2.33301 17.3274V7.64366C2.33301 5.25179 4.1765 3.26413 6.5616 3.08437L6.81924 3.06495Z" fill="black"/>
</svg>
